<svg xmlns="http://www.w3.org/2000/svg" viewBox="0 0 64 64" role="img" aria-label="STRIKEPULSE eagle shield lightning logo">
  <defs>
    <linearGradient id="sp-bg" x1="8" x2="56" y1="4" y2="60" gradientUnits="userSpaceOnUse">
      <stop stop-color="#0f172a"/>
      <stop offset="1" stop-color="#020617"/>
    </linearGradient>
    <linearGradient id="sp-shield" x1="17" x2="48" y1="8" y2="55" gradientUnits="userSpaceOnUse">
      <stop stop-color="#67e8f9"/>
      <stop offset=".55" stop-color="#0891b2"/>
      <stop offset="1" stop-color="#164e63"/>
    </linearGradient>
    <linearGradient id="sp-bolt" x1="43" x2="54" y1="8" y2="51" gradientUnits="userSpaceOnUse">
      <stop stop-color="#fff7ad"/>
      <stop offset=".45" stop-color="#facc15"/>
      <stop offset="1" stop-color="#f97316"/>
    </linearGradient>
    <radialGradient id="sp-sun" cx="18" cy="13" r="9" gradientUnits="userSpaceOnUse">
      <stop stop-color="#fff7ad"/>
      <stop offset=".52" stop-color="#facc15"/>
      <stop offset="1" stop-color="#f97316"/>
    </radialGradient>
    <filter id="sp-glow" x="-30%" y="-30%" width="160%" height="160%">
      <feGaussianBlur stdDeviation="2.2" result="blur"/>
      <feColorMatrix in="blur" type="matrix" values="1 0 0 0 0.98 0 1 0 0 0.72 0 0 1 0 0.08 0 0 0 .85 0"/>
      <feMerge>
        <feMergeNode/>
        <feMergeNode in="SourceGraphic"/>
      </feMerge>
    </filter>
  </defs>
  <rect width="64" height="64" rx="14" fill="url(#sp-bg)"/>
  <path d="M32 6 52 15v14c0 13.5-8.4 23.4-20 28.5C20.4 52.4 12 42.5 12 29V15L32 6Z" fill="url(#sp-shield)"/>
  <path d="M32 10 48 17.2v11.5c0 10.9-6.5 19.3-16 24-9.5-4.7-16-13.1-16-24V17.2L32 10Z" fill="none" stroke="#cffafe" stroke-opacity=".62" stroke-width="1.5"/>
  <g filter="url(#sp-glow)">
    <circle cx="18" cy="14" r="5.1" fill="url(#sp-sun)" stroke="#fff7ed" stroke-opacity=".72" stroke-width="1"/>
    <path d="M18 4.8v3.1M18 20.1v3.1M8.8 14h3.1M24.1 14h3.1M11.5 7.5l2.2 2.2M22.3 18.3l2.2 2.2M24.5 7.5l-2.2 2.2M13.7 18.3l-2.2 2.2" fill="none" stroke="#fde68a" stroke-width="1.6" stroke-linecap="round" opacity=".9"/>
    <path d="M10.6 23.3c2.9-2.1 5.8-2.1 8.7 0s5.8 2.1 8.7 0" fill="none" stroke="#22d3ee" stroke-width="1.5" stroke-linecap="round" opacity=".72"/>
  </g>
  <path d="M50 6 38 29h8l-7 25 18-31h-9l2-17Z" fill="url(#sp-bolt)" stroke="#09090b" stroke-width="2.3" stroke-linejoin="round" filter="url(#sp-glow)"/>
  <path d="M20 35c6-9 14-14 26-16-5 5-7 11-7 18-4-3-9-4-19-2Z" fill="#f8fafc"/>
  <path d="M21 35c6.8-6.2 13.7-10.1 22-12.1-3.2 3.9-4.8 8.8-4.5 14.1-4.2-2.7-9.2-3.4-17.5-2Z" fill="#dbeafe" opacity=".55"/>
  <path d="M34 25c5-3 10-4 15-4-4 2-7 5-9 8l9 2-11 4c-2-4-3-7-4-10Z" fill="#e2e8f0"/>
  <path d="M45 29 54 31l-10 4c1-2 1-4 1-6Z" fill="#facc15"/>
  <circle cx="38" cy="25" r="1.8" fill="#09090b"/>
  <circle cx="38.6" cy="24.4" r=".55" fill="#f8fafc"/>
  <path d="M21 43h22" fill="none" stroke="#09090b" stroke-width="5" stroke-linecap="round"/>
  <path d="M19 43h25" fill="none" stroke="#cffafe" stroke-opacity=".24" stroke-width="1.2" stroke-linecap="round"/>
  <path d="M46 14 52 16.5v6" fill="none" stroke="#a78bfa" stroke-width="3" stroke-linecap="round"/>
  <path d="M10 47c5 5.9 11.9 10.3 22 14 10.1-3.7 17-8.1 22-14" fill="none" stroke="#22d3ee" stroke-opacity=".22" stroke-width="2" stroke-linecap="round"/>
</svg>
