<svg xmlns="http://www.w3.org/2000/svg" viewBox="0 0 192 192" role="img" aria-label="STRIKEPULSE app icon placeholder">
  <rect width="192" height="192" rx="42" fill="#0B1020"/>
  <path d="M96 20 154 46v42c0 40-24 69-58 84-34-15-58-44-58-84V46l58-26Z" fill="#1E5EFF"/>
  <path d="M96 32 140 52v34c0 30-18 54-44 67-26-13-44-37-44-67V52l44-20Z" fill="none" stroke="#B8C2CC" stroke-width="5" opacity=".8"/>
  <circle cx="58" cy="45" r="15" fill="#00E5FF"/>
  <path d="M146 16 110 86h24l-22 76 54-96h-27l7-50Z" fill="#22FF88" stroke="#0B1020" stroke-width="8" stroke-linejoin="round"/>
  <path d="M60 106c19-27 44-43 83-49-16 15-22 33-21 54-14-9-31-12-62-5Z" fill="#FFFFFF"/>
  <circle cx="116" cy="76" r="6" fill="#0B1020"/>
  <path d="M62 132h70" stroke="#0B1020" stroke-width="14" stroke-linecap="round"/>
</svg>
